HIERARCHY
ROOT Hips
{
	OFFSET 0.000000 0.000000 0.000000
	CHANNELS 6 Xposition Yposition Zposition Zrotation Yrotation Xrotation 
	JOINT LHipJoint
	{
		OFFSET 0.000000 0.000000 0.000000
		CHANNELS 3 Zrotation Yrotation Xrotation
		JOINT LeftUpLeg
		{
			OFFSET 1.363060 -1.794630 0.839290
			CHANNELS 3 Zrotation Yrotation Xrotation
			JOINT LeftLeg
			{
				OFFSET 2.448110 -6.726130 0.000000
				CHANNELS 3 Zrotation Yrotation Xrotation
				JOINT LeftFoot
				{
					OFFSET 2.562200 -7.039590 0.000000
					CHANNELS 3 Zrotation Yrotation Xrotation
					JOINT LeftToeBase
					{
						OFFSET 0.157640 -0.433110 2.322550
						CHANNELS 3 Zrotation Yrotation Xrotation
						End Site
						{
							OFFSET 0.000000 0.000000 0.000000
						}
					}
				}
			}
		}
	}
	JOINT RHipJoint
	{
		OFFSET 0.000000 0.000000 0.000000
		CHANNELS 3 Zrotation Yrotation Xrotation
		JOINT RightUpLeg
		{
			OFFSET -1.305520 -1.794630 0.839290
			CHANNELS 3 Zrotation Yrotation Xrotation
			JOINT RightLeg
			{
				OFFSET -2.542530 -6.985550 0.000000
				CHANNELS 3 Zrotation Yrotation Xrotation
				JOINT RightFoot
				{
					OFFSET -2.568260 -7.056230 0.000000
					CHANNELS 3 Zrotation Yrotation Xrotation
					JOINT RightToeBase
					{
						OFFSET -0.164730 -0.452590 2.363150
						CHANNELS 3 Zrotation Yrotation Xrotation
						End Site
						{
							OFFSET 0.000000 0.000000 0.000000
						}
					}
				}
			}
		}
	}
	JOINT LowerBack
	{
		OFFSET 0.000000 0.000000 0.000000
		CHANNELS 3 Zrotation Yrotation Xrotation
		JOINT Spine
		{
			OFFSET 0.028270 2.035590 -0.193380
			CHANNELS 3 Zrotation Yrotation Xrotation
			JOINT Spine1
			{
				OFFSET 0.056720 2.048850 -0.042750
				CHANNELS 3 Zrotation Yrotation Xrotation
				JOINT Neck
				{
					OFFSET 0.000000 0.000000 0.000000
					CHANNELS 3 Zrotation Yrotation Xrotation
					JOINT Neck1
					{
						OFFSET -0.054170 1.746240 0.172020
						CHANNELS 3 Zrotation Yrotation Xrotation
						JOINT Head
						{
							OFFSET 0.104070 1.761360 -0.123970
							CHANNELS 3 Zrotation Yrotation Xrotation
							End Site
							{
								OFFSET 0.000000 0.000000 0.000000
							}
						}
					}
				}
				JOINT LeftShoulder
				{
					OFFSET 0.000000 0.000000 0.000000
					CHANNELS 3 Zrotation Yrotation Xrotation
					JOINT LeftArm
					{
						OFFSET 3.362410 1.200890 -0.311210
						CHANNELS 3 Zrotation Yrotation Xrotation
						JOINT LeftForeArm
						{
							OFFSET 4.983000 -0.000000 -0.000000
							CHANNELS 3 Zrotation Yrotation Xrotation
							JOINT LeftHand
							{
								OFFSET 3.483560 -0.000000 -0.000000
								CHANNELS 3 Zrotation Yrotation Xrotation
								JOINT LeftFingerBase
								{
									OFFSET 0.000000 0.000000 0.000000
									CHANNELS 3 Zrotation Yrotation Xrotation
									JOINT LeftHandIndex1
									{
										OFFSET 0.715260 -0.000000 -0.000000
										CHANNELS 3 Zrotation Yrotation Xrotation
										End Site
										{
											OFFSET 0.000000 0.000000 0.000000
										}
									}
								}
								JOINT LThumb
								{
									OFFSET 0.000000 0.000000 0.000000
									CHANNELS 3 Zrotation Yrotation Xrotation
									End Site
									{
										OFFSET 0.000000 0.000000 0.000000
									}
								}
							}
						}
					}
				}
				JOINT RightShoulder
				{
					OFFSET 0.000000 0.000000 0.000000
					CHANNELS 3 Zrotation Yrotation Xrotation
					JOINT RightArm
					{
						OFFSET -3.136600 1.374050 -0.404650
						CHANNELS 3 Zrotation Yrotation Xrotation
						JOINT RightForeArm
						{
							OFFSET -5.241900 -0.000000 -0.000000
							CHANNELS 3 Zrotation Yrotation Xrotation
							JOINT RightHand
							{
								OFFSET -3.444170 -0.000000 -0.000000
								CHANNELS 3 Zrotation Yrotation Xrotation
								JOINT RightFingerBase
								{
									OFFSET 0.000000 0.000000 0.000000
									CHANNELS 3 Zrotation Yrotation Xrotation
									JOINT RightHandIndex1
									{
										OFFSET -0.622530 -0.000000 -0.000000
										CHANNELS 3 Zrotation Yrotation Xrotation
										End Site
										{
											OFFSET 0.000000 0.000000 0.000000
										}
									}
								}
								JOINT RThumb
								{
									OFFSET 0.000000 0.000000 0.000000
									CHANNELS 3 Zrotation Yrotation Xrotation
									End Site
									{
										OFFSET 0.000000 0.000000 0.000000
									}
								}
							}
						}
					}
				}
			}
		}
	}
}
MOTION
Frames: 4
Frame Time: 0.008333
3.682614 16.687787 -2.533642 121.612724 -78.896549 -137.330723 -6.352426 -5.900086 1.137153 -20.438516 11.582814 -87.142944 -3.915343 -1.539844 0.422621 1.613010 11.425281 6.421869 3.851000 -0.000000 -41.707200 11.008167 0.258727 -5.151994 2.752052 -6.446872 9.068415 0.446984 -2.922568 29.726034 -3.472382 -15.326896 -15.410321 1.521600 -0.000000 -52.851400 -10.712212 0.213110 3.621719 -2.267798 0.910190 -1.660924 -3.354949 0.973421 1.640594 7.972688 -19.593675 -8.917964 -0.075473 0.025868 -0.410281 0.000000 0.000000 0.000000 3.426834 26.836640 0.435237 -76.482104 31.519027 -10.076226 -4.484008 -27.672387 -0.001615 -3.978110 -0.647823 0.020136 -0.143604 -0.056372 -0.000000 0.000000 0.000000 0.000000 0.000000 0.000000 0.000000 4.878438 -14.251974 -1.307680 63.448244 -7.239951 26.233748 1.509229 48.856805 0.006104 2.414356 4.636100 0.098685 0.025912 -0.077256 0.000000 0.000000 0.000000 0.000000 0.000000 0.000000 0.000000 
3.678446 16.672687 -2.532202 120.887927 -78.818542 -137.001273 -6.473192 -5.762526 0.894525 -19.840379 11.793776 -86.419207 -3.748298 -0.973506 4.331649 1.557449 11.210274 7.491943 3.923000 0.000000 -40.543399 11.083883 0.217108 -5.095098 2.339071 -6.753254 9.240687 0.439369 -2.936988 29.961592 -3.411519 -15.027753 -15.593746 1.559100 0.000000 -53.021400 -10.670118 0.085476 3.702927 -2.232415 0.788699 -1.630878 -3.277917 0.849732 1.654319 8.012353 -19.701932 -9.024577 -0.056198 0.029395 -0.440424 0.000000 0.000000 0.000000 3.332454 27.053831 0.510826 -77.062862 31.532126 -11.798544 -4.551491 -26.357096 -0.000596 -3.769414 -0.826274 0.024843 -0.148513 -0.052037 -0.000000 0.000000 0.000000 0.000000 0.000000 0.000000 0.000000 4.943261 -14.413450 -1.346828 63.241512 -7.195146 26.147476 1.483010 49.045472 0.006061 2.333541 4.799440 0.098780 0.024705 -0.079819 0.000000 0.000000 0.000000 0.000000 0.000000 0.000000 0.000000 
3.675996 16.656711 -2.533145 119.758752 -78.764927 -136.367088 -6.551304 -5.625631 0.547420 -19.756709 12.064917 -85.526643 -3.593936 -0.466102 7.921365 1.443606 10.692730 8.659287 3.885100 -0.000000 -38.359800 11.183643 0.172922 -5.056530 1.835669 -7.140802 9.543938 0.428560 -2.955401 30.140248 -3.346513 -14.713924 -15.753151 1.585400 0.000000 -53.226400 -10.684338 -0.048265 3.905552 -2.210364 0.662943 -1.577295 -3.208845 0.725033 1.659084 8.055388 -19.835756 -9.119925 -0.039695 0.032626 -0.468603 0.000000 0.000000 0.000000 3.288964 27.167380 0.579897 -77.577469 31.469408 -13.385987 -4.612638 -25.009306 0.000439 -3.556293 -1.018225 0.029147 -0.153000 -0.047902 -0.000000 0.000000 0.000000 0.000000 0.000000 0.000000 0.000000 5.016453 -14.606414 -1.383813 63.121831 -7.162524 25.899950 1.460081 49.198236 0.006031 2.198062 4.972210 0.096379 0.024334 -0.082950 0.000000 0.000000 0.000000 0.000000 0.000000 0.000000 0.000000 
3.675065 16.641097 -2.535694 118.362290 -78.752982 -135.501958 -6.608837 -5.496146 0.161438 -19.952099 12.370562 -84.406126 -3.435889 -0.055803 10.977718 1.334465 10.178598 9.772592 3.811800 -0.000001 -35.768100 11.291574 0.127812 -5.036279 1.309554 -7.577586 9.926633 0.416542 -2.973815 30.251825 -3.284358 -14.417947 -15.881079 1.601200 -0.000001 -53.431100 -10.718371 -0.185488 4.172409 -2.195408 0.533487 -1.511723 -3.148971 0.598651 1.657961 8.095450 -19.988568 -9.199766 -0.027675 0.035282 -0.493078 0.000000 0.000000 0.000000 3.284653 27.184257 0.639937 -78.011481 31.326335 -14.823627 -4.667123 -23.641169 0.001459 -3.334727 -1.210373 0.032749 -0.157146 -0.043961 -0.000000 0.000000 0.000000 0.000000 0.000000 0.000000 0.000000 5.095291 -14.825234 -1.419646 63.086757 -7.158664 25.486505 1.442178 49.306677 0.006013 2.017427 5.142690 0.091382 0.024807 -0.086371 0.000000 0.000000 0.000000 0.000000 0.000000 0.000000 0.000000 
